HIERARCHY
ROOT hips
{
  OFFSET -0.00735851563513279 12.18665635585785 0.12248523347079754
  CHANNELS 6 Xposition Yposition Zposition Yrotation Xrotation Zrotation
  JOINT spine
  {
    OFFSET 1.0244548320770264e-7 0.5955291986465454 0
    CHANNELS 3 Yrotation Xrotation Zrotation
    JOINT chest
    {
      OFFSET 0 1.2719063864449713 0
      CHANNELS 3 Yrotation Xrotation Zrotation
      JOINT upperChest
      {
        OFFSET 0 1.490802666915459 0
        CHANNELS 3 Yrotation Xrotation Zrotation
        JOINT neck
        {
          OFFSET 0 1.3131953345263365 0
          CHANNELS 3 Yrotation Xrotation Zrotation
          JOINT head
          {
            OFFSET 0 0.8653679716847534 0
            CHANNELS 3 Yrotation Xrotation Zrotation
            JOINT leftEye
            {
              OFFSET 0.20629723300226033 0.6721053123474121 0.3036841657012701
              CHANNELS 3 Yrotation Xrotation Zrotation
              End Site
              {
                OFFSET 0.20629723300226033 0.6721053123474121 0.3036841657012701
              }
            }
            JOINT rightEye
            {
              OFFSET -0.20629652100615203 0.6721066236495972 0.30368443205952644
              CHANNELS 3 Yrotation Xrotation Zrotation
              End Site
              {
                OFFSET -0.20629652100615203 0.6721066236495972 0.30368443205952644
              }
            }
          }
        }
        JOINT leftShoulder
        {
          OFFSET 0.24624172446783632 0.959903359413147 0
          CHANNELS 3 Yrotation Xrotation Zrotation
          JOINT leftUpperArm
          {
            OFFSET 0.9650355761446514 0 0
            CHANNELS 3 Yrotation Xrotation Zrotation
            JOINT leftLowerArm
            {
              OFFSET 2.4419134471639827 0 0
              CHANNELS 3 Yrotation Xrotation Zrotation
              JOINT leftHand
              {
                OFFSET 2.3874557408809456 0 0
                CHANNELS 3 Yrotation Xrotation Zrotation
                JOINT leftIndexProximal
                {
                  OFFSET 0.7029628753662109 0.06118142604827881 0.23586585000157356
                  CHANNELS 3 Yrotation Xrotation Zrotation
                  JOINT leftIndexIntermediate
                  {
                    OFFSET 0.36102771759033203 -0.001475214958190918 0.056637559086084366
                    CHANNELS 3 Yrotation Xrotation Zrotation
                    JOINT leftIndexDistal
                    {
                      OFFSET 0.22344785928726196 -0.007408857345581055 0.02531452476978302
                      CHANNELS 3 Yrotation Xrotation Zrotation
                      End Site
                      {
                        OFFSET 0.22344785928726196 -0.007408857345581055 0.02531452476978302
                      }
                    }
                  }
                }
                JOINT leftLittleProximal
                {
                  OFFSET 0.6958752870559692 0.034375786781311035 -0.29472956992685795
                  CHANNELS 3 Yrotation Xrotation Zrotation
                  JOINT leftLittleIntermediate
                  {
                    OFFSET 0.34538060426712036 -0.0030041933059692383 0.00024324655532836914
                    CHANNELS 3 Yrotation Xrotation Zrotation
                    JOINT leftLittleDistal
                    {
                      OFFSET 0.19865047931671143 0.00746917724609375 -0.010377676226198673
                      CHANNELS 3 Yrotation Xrotation Zrotation
                      End Site
                      {
                        OFFSET 0.19865047931671143 0.00746917724609375 -0.010377676226198673
                      }
                    }
                  }
                }
                JOINT leftMiddleProximal
                {
                  OFFSET 0.7272291779518127 0.09209799766540527 0.05257739871740341
                  CHANNELS 3 Yrotation Xrotation Zrotation
                  JOINT leftMiddleIntermediate
                  {
                    OFFSET 0.40590834617614746 -0.014838695526123047 0.026817932724952698
                    CHANNELS 3 Yrotation Xrotation Zrotation
                    JOINT leftMiddleDistal
                    {
                      OFFSET 0.2495119571685791 -0.026458144187927246 0.010310646146535873
                      CHANNELS 3 Yrotation Xrotation Zrotation
                      End Site
                      {
                        OFFSET 0.2495119571685791 -0.026458144187927246 0.010310646146535873
                      }
                    }
                  }
                }
                JOINT leftRingProximal
                {
                  OFFSET 0.7334893345832825 0.09136629104614258 -0.1205735495314002
                  CHANNELS 3 Yrotation Xrotation Zrotation
                  JOINT leftRingIntermediate
                  {
                    OFFSET 0.3775520920753479 -0.005917906761169434 0.001896639820188284
                    CHANNELS 3 Yrotation Xrotation Zrotation
                    JOINT leftRingDistal
                    {
                      OFFSET 0.2177620530128479 0.007703900337219238 0.0027355607599020004
                      CHANNELS 3 Yrotation Xrotation Zrotation
                      End Site
                      {
                        OFFSET 0.2177620530128479 0.007703900337219238 0.0027355607599020004
                      }
                    }
                  }
                }
                JOINT leftThumbProximal
                {
                  OFFSET 0.02235114574432373 -0.07603192329406738 0.1950724683701992
                  CHANNELS 3 Yrotation Xrotation Zrotation
                  JOINT leftThumbIntermediate
                  {
                    OFFSET 0.3551589846611023 -0.02970755100250244 0.36741212010383606
                    CHANNELS 3 Yrotation Xrotation Zrotation
                    JOINT leftThumbDistal
                    {
                      OFFSET 0.23456048965454102 -0.016631245613098145 0.2093813568353653
                      CHANNELS 3 Yrotation Xrotation Zrotation
                      End Site
                      {
                        OFFSET 0.23456048965454102 -0.016631245613098145 0.2093813568353653
                      }
                    }
                  }
                }
              }
            }
          }
        }
        JOINT rightShoulder
        {
          OFFSET -0.24624088185373694 0.9600239992141724 0
          CHANNELS 3 Yrotation Xrotation Zrotation
          JOINT rightUpperArm
          {
            OFFSET -0.9650300767908009 0 0
            CHANNELS 3 Yrotation Xrotation Zrotation
            JOINT rightLowerArm
            {
              OFFSET -2.4420125187833426 0 0
              CHANNELS 3 Yrotation Xrotation Zrotation
              JOINT rightHand
              {
                OFFSET -2.3874255620910265 0 0
                CHANNELS 3 Yrotation Xrotation Zrotation
                JOINT rightIndexProximal
                {
                  OFFSET -0.7029609084129333 0.06117355823516846 0.23587234504520893
                  CHANNELS 3 Yrotation Xrotation Zrotation
                  JOINT rightIndexIntermediate
                  {
                    OFFSET -0.3610270619392395 -0.0014804601669311523 0.05664427950978279
                    CHANNELS 3 Yrotation Xrotation Zrotation
                    JOINT rightIndexDistal
                    {
                      OFFSET -0.2234485149383545 -0.0074127912521362305 0.025317884981632233
                      CHANNELS 3 Yrotation Xrotation Zrotation
                      End Site
                      {
                        OFFSET -0.2234485149383545 -0.0074127912521362305 0.025317884981632233
                      }
                    }
                  }
                }
                JOINT rightLittleProximal
                {
                  OFFSET -0.6958779096603394 0.034366607666015625 -0.29472311586141586
                  CHANNELS 3 Yrotation Xrotation Zrotation
                  JOINT rightLittleIntermediate
                  {
                    OFFSET -0.3453786373138428 -0.003008127212524414 0.00025422871112823486
                    CHANNELS 3 Yrotation Xrotation Zrotation
                    JOINT rightLittleDistal
                    {
                      OFFSET -0.19865179061889648 0.00746917724609375 -0.010371447540819645
                      CHANNELS 3 Yrotation Xrotation Zrotation
                      End Site
                      {
                        OFFSET -0.19865179061889648 0.00746917724609375 -0.010371447540819645
                      }
                    }
                  }
                }
                JOINT rightMiddleProximal
                {
                  OFFSET -0.7272304892539978 0.09209012985229492 0.05258418060839176
                  CHANNELS 3 Yrotation Xrotation Zrotation
                  JOINT rightMiddleIntermediate
                  {
                    OFFSET -0.4059063792228699 -0.014843940734863281 0.026821313425898552
                    CHANNELS 3 Yrotation Xrotation Zrotation
                    JOINT rightMiddleDistal
                    {
                      OFFSET -0.24951326847076416 -0.026460766792297363 0.010313207283616066
                      CHANNELS 3 Yrotation Xrotation Zrotation
                      End Site
                      {
                        OFFSET -0.24951326847076416 -0.026460766792297363 0.010313207283616066
                      }
                    }
                  }
                }
                JOINT rightRingProximal
                {
                  OFFSET -0.7334906458854675 0.09135580062866211 -0.12056719791144133
                  CHANNELS 3 Yrotation Xrotation Zrotation
                  JOINT rightRingIntermediate
                  {
                    OFFSET -0.37755340337753296 -0.005923151969909668 0.0019026175141334534
                    CHANNELS 3 Yrotation Xrotation Zrotation
                    JOINT rightRingDistal
                    {
                      OFFSET -0.21775943040847778 0.007701277732849121 0.0027383523993194103
                      CHANNELS 3 Yrotation Xrotation Zrotation
                      End Site
                      {
                        OFFSET -0.21775943040847778 0.007701277732849121 0.0027383523993194103
                      }
                    }
                  }
                }
                JOINT rightThumbProximal
                {
                  OFFSET -0.022347867488861084 -0.07603061199188232 0.19507363624870777
                  CHANNELS 3 Yrotation Xrotation Zrotation
                  JOINT rightThumbIntermediate
                  {
                    OFFSET -0.3550455570220947 -0.029461026191711426 0.36754218488931656
                    CHANNELS 3 Yrotation Xrotation Zrotation
                    JOINT rightThumbDistal
                    {
                      OFFSET -0.23451131582260132 -0.016489624977111816 0.20944765955209732
                      CHANNELS 3 Yrotation Xrotation Zrotation
                      End Site
                      {
                        OFFSET -0.23451131582260132 -0.016489624977111816 0.20944765955209732
                      }
                    }
                  }
                }
              }
            }
          }
        }
      }
    }
  }
  JOINT leftUpperLeg
  {
    OFFSET 0.8483456987887621 -0.42556869983673096 0
    CHANNELS 3 Yrotation Xrotation Zrotation
    JOINT leftLowerLeg
    {
      OFFSET 0 -4.6702112872869534 0
      CHANNELS 3 Yrotation Xrotation Zrotation
      JOINT leftFoot
      {
        OFFSET -0.13096565008163452 -5.202569782733917 -0.2985280640423298
        CHANNELS 3 Yrotation Xrotation Zrotation
        JOINT leftToes
        {
          OFFSET 0.01423943042755127 -0.7568342834711075 1.213271364569664
          CHANNELS 3 Yrotation Xrotation Zrotation
          End Site
          {
            OFFSET 0.01423943042755127 -0.7568342834711075 1.213271364569664
          }
        }
      }
    }
  }
  JOINT rightUpperLeg
  {
    OFFSET -0.8483468051999807 -0.42556607723236084 0
    CHANNELS 3 Yrotation Xrotation Zrotation
    JOINT rightLowerLeg
    {
      OFFSET 0 -4.670219469177788 0
      CHANNELS 3 Yrotation Xrotation Zrotation
      JOINT rightFoot
      {
        OFFSET 0.13097601756453514 -5.202573716640472 -0.29853164963424206
        CHANNELS 3 Yrotation Xrotation Zrotation
        JOINT rightToes
        {
          OFFSET -0.014232628047466278 -0.7568355947732925 1.213272675871849
          CHANNELS 3 Yrotation Xrotation Zrotation
          End Site
          {
            OFFSET -0.014232628047466278 -0.7568355947732925 1.213272675871849
          }
        }
      }
    }
  }
}
MOTION
Frames: 4
Frame Time: 0.03333333333333333
-0.042446204182746555 10.651744235925307 0 0 -2.0251039843986507 0 0.06379954997026199 -0.35659305839656086 -4.360473168327963 -0.08919336536440908 -3.23295226054472 -1.2112336076945578 0 0 0 0.20867330914522755 15.423772375529865 2.0017592588742565 5.0988267237212003e-14 3.539301540319145e-15 2.896556375037295e-13 0 0 0 0 0 0 -8.805302883527949 2.6003110075752334 -13.245124917500815 7.946261824353125 -0.815645303775189 9.195294151797198 -16.52320009587943 1.2187832491613373 4.6211160450061355 -6.4281995764904585e-12 5.658318594699117e-11 1.9457848341756809e-10 -3.6362923013974475 -2.244307238773714 -19.1331992307828 -7.100467301778522 3.6208598726743304 1.8225833510877834 0 0 0 37.98132903795241 3.8571197109621314 -18.213860060837895 -3.9815054993060692 -0.31200055448698594 -2.714025371509236 0 0 0 2.929467282294818 -1.2317410530999424 -10.132729622092112 -1.2464576280603077 0.3777279920650976 3.9817349636119856 0 0 0 18.72395458401292 0.4630544605552466 -17.775593849694907 -4.013708396721781 0.9952396653076988 -3.126586100320959 0 0 0 18.2690869785071 2.1086426759862387 -5.5655315414763 3.7170591655395477 8.635662614087984 -20.580556916942477 0 0 0 8.805302883527949 2.6003110075752334 13.245124917500815 -7.946261824353125 -0.815645303775189 -9.195294151797198 16.52320009587943 1.2187832491613373 -4.6211160450061355 -6.396946511281258e-12 -5.445000283098365e-11 1.9536985760329147e-10 3.635273235640843 -2.2440197234261947 19.13241602264739 7.10074700779512 3.620750798807948 -1.822804381112586 0 0 0 -37.98306068627806 3.857696460990191 18.21308707412888 3.9815144424260245 -0.31200164840068895 2.714676042683495 0 0 0 -2.929954418445625 -1.2316699600172374 10.13199307278958 1.2463844327030156 0.3777063270880474 -3.9815534479925643 0 0 0 -18.724814804065176 0.46333589488999716 17.77479459089185 4.013885012324447 0.9952023070750878 3.126698833958267 0 0 0 -18.28773932428485 2.122714774290576 5.592006425941941 -3.7121664153589 8.636710981961548 20.57778314378226 0 0 0 1.4246473571140024 -12.074930963121899 -3.8865348292032937 -0.3171885238373688 7.159067247420351 -1.047938770147891 -0.040428838641296365 -3.542297345732797 0.5451740471151083 0 0 0 0.27506316862597757 -2.8235831046529114 -2.8896913420653596 -0.1327621285778775 -9.691947560435464 0.9257901521849451 0.1127591366658229 4.0030398355416565 -0.40980490469240594 0 0 0
-0.2831489834161967 -0.03451771807484827 -0.32275938853824815 -0.164510200954738 7.639146155358753 -9.199989708521656 2.9346633270170965 -11.552193941154238 3.2308525000891217 1.2833487719914658 -11.280207164500926 -3.6194385745696076 0 0 0 -18.691528318978044 25.127524133025023 -10.787066893029003 -23.778723399696048 8.055075581656835 19.280065065520706 0 0 0 0 0 0 -8.805302883527949 2.6003110075752334 -13.245124917500815 4.268787730816404 11.971135271585338 -76.31111223904443 -34.0435840405121 4.206536389778085 13.772973696123346 -5.772804390897533 22.779781296304467 -8.676609591912946 -3.6362923013974475 -2.244307238773714 -19.1331992307828 -7.100467301778522 3.6208598726743304 1.8225833510877834 0 0 0 37.98132903795241 3.8571197109621314 -18.213860060837895 -3.9815054993060692 -0.31200055448698594 -2.714025371509236 0 0 0 2.929467282294818 -1.2317410530999424 -10.132729622092112 -1.2464576280603077 0.3777279920650976 3.9817349636119856 0 0 0 18.72395458401292 0.4630544605552466 -17.775593849694907 -4.013708396721781 0.9952396653076988 -3.126586100320959 0 0 0 18.2690869785071 2.1086426759862387 -5.5655315414763 3.7170591655395477 8.635662614087984 -20.580556916942477 0 0 0 8.805302883527949 2.6003110075752334 13.245124917500815 -12.605046383010603 11.51044962087181 77.57971235843299 40.63155389312167 6.064975595579803 -16.98900947384315 10.150454229864778 32.8236218861502 14.132638848916182 3.635273235640843 -2.2440197234261947 19.13241602264739 7.10074700779512 3.620750798807948 -1.822804381112586 0 0 0 -37.98306068627806 3.857696460990191 18.21308707412888 3.9815144424260245 -0.31200164840068895 2.714676042683495 0 0 0 -2.929954418445625 -1.2316699600172374 10.13199307278958 1.2463844327030156 0.3777063270880474 -3.9815534479925643 0 0 0 -18.724814804065176 0.46333589488999716 17.77479459089185 4.013885012324447 0.9952023070750878 3.126698833958267 0 0 0 -18.28773932428485 2.122714774290576 5.592006425941941 -3.7121664153589 8.636710981961548 20.57778314378226 0 0 0 -49.89644754314855 -4.586298859316714 3.4649116805303457 0.7751482070466863 5.532523520048163 -0.6193180668471998 59.039131811995475 -35.79646624280891 -2.6841250977154707 0 0 0 24.58831124421959 -6.392177777144144 1.0006972734756958 0.30856366981258654 -8.744377705874108 0.9874180114832265 -25.77152892823831 -9.312991391836263 -3.587033912101304 0 0 0
-0.27767108741643975 -0.03617064284610857 -0.3217133970814352 -0.23035373912645005 7.784871541040776 -9.00594730686195 0.519668565007864 -11.494900886133427 3.697012420776679 0.3213094941927882 -12.094943827871266 -1.8291884881656073 0 0 0 -18.0063504047443 23.472963999421527 -12.213562741866916 -21.920385682617194 9.457454144031578 17.39154559312717 0 0 0 0 0 0 -8.805302883527949 2.6003110075752334 -13.245124917500815 5.446944448562206 12.925082362570127 -78.47863357382161 -34.908075070691126 4.4279022673169575 14.204110741888513 -5.199098769379204 21.143221622019382 -7.9190610370057595 -3.6362923013974475 -2.244307238773714 -19.1331992307828 -7.100467301778522 3.6208598726743304 1.8225833510877834 0 0 0 37.98132903795241 3.8571197109621314 -18.213860060837895 -3.9815054993060692 -0.31200055448698594 -2.714025371509236 0 0 0 2.929467282294818 -1.2317410530999424 -10.132729622092112 -1.2464576280603077 0.3777279920650976 3.9817349636119856 0 0 0 18.72395458401292 0.4630544605552466 -17.775593849694907 -4.013708396721781 0.9952396653076988 -3.126586100320959 0 0 0 18.2690869785071 2.1086426759862387 -5.5655315414763 3.7170591655395477 8.635662614087984 -20.580556916942477 0 0 0 8.805302883527949 2.6003110075752334 13.245124917500815 -8.961274384800175 12.453661955048108 75.74373595661682 39.712010665550146 5.782099520493548 -16.550242187316464 9.705951834751387 31.963639484430225 13.598452151328134 3.635273235640843 -2.2440197234261947 19.13241602264739 7.10074700779512 3.620750798807948 -1.822804381112586 0 0 0 -37.98306068627806 3.857696460990191 18.21308707412888 3.9815144424260245 -0.31200164840068895 2.714676042683495 0 0 0 -2.929954418445625 -1.2316699600172374 10.13199307278958 1.2463844327030156 0.3777063270880474 -3.9815534479925643 0 0 0 -18.724814804065176 0.46333589488999716 17.77479459089185 4.013885012324447 0.9952023070750878 3.126698833958267 0 0 0 -18.28773932428485 2.122714774290576 5.592006425941941 -3.7121664153589 8.636710981961548 20.57778314378226 0 0 0 -50.0640158773552 -4.8538690763389365 3.3576310775665243 0.7861176394506332 5.5789268126310825 -0.6132508108116194 59.222512163472814 -35.92798753196768 -2.7038828627753535 0 0 0 25.129844524879932 -6.362210157351486 0.7635305727905151 0.30789750427809953 -8.856640445511974 0.9822298222217648 -26.236709489935066 -9.352756351053447 -3.59776741171263 0 0 0
-0.27427355220301197 -0.03945066543907689 -0.3156182369874096 -0.26589890375823344 8.239863514167888 -8.738820243722481 0.3830815431005247 -12.521172043156128 3.2248216217982923 0.22284155372412554 -11.558895290347893 -1.6066887361214004 0 0 0 -17.958305615999908 23.550026899762127 -12.277148895724778 -21.746038234821505 9.391539329764084 17.48455309637594 0 0 0 0 0 0 -8.805302883527949 2.6003110075752334 -13.245124917500815 5.482655594663603 12.962742181823867 -78.69724433691486 -35.02197600210451 4.457602086387333 14.260683350041361 -5.177217896758163 21.0789527386579 -7.889905328256331 -3.6362923013974475 -2.244307238773714 -19.1331992307828 -7.100467301778522 3.6208598726743304 1.8225833510877834 0 0 0 37.98132903795241 3.8571197109621314 -18.213860060837895 -3.9815054993060692 -0.31200055448698594 -2.714025371509236 0 0 0 2.929467282294818 -1.2317410530999424 -10.132729622092112 -1.2464576280603077 0.3777279920650976 3.9817349636119856 0 0 0 18.72395458401292 0.4630544605552466 -17.775593849694907 -4.013708396721781 0.9952396653076988 -3.126586100320959 0 0 0 18.2690869785071 2.1086426759862387 -5.5655315414763 3.7170591655395477 8.635662614087984 -20.580556916942477 0 0 0 8.805302883527949 2.6003110075752334 13.245124917500815 -9.129667237702373 12.473697501934447 75.76234194136052 39.704487802420296 5.779845621161595 -16.5466597438263 9.79140729833495 32.13134655604912 13.701434414538735 3.635273235640843 -2.2440197234261947 19.13241602264739 7.10074700779512 3.620750798807948 -1.822804381112586 0 0 0 -37.98306068627806 3.857696460990191 18.21308707412888 3.9815144424260245 -0.31200164840068895 2.714676042683495 0 0 0 -2.929954418445625 -1.2316699600172374 10.13199307278958 1.2463844327030156 0.3777063270880474 -3.9815534479925643 0 0 0 -18.724814804065176 0.46333589488999716 17.77479459089185 4.013885012324447 0.9952023070750878 3.126698833958267 0 0 0 -18.28773932428485 2.122714774290576 5.592006425941941 -3.7121664153589 8.636710981961548 20.57778314378226 0 0 0 -50.47245153878858 -5.394825386889231 3.366561254292087 0.8155115661777127 5.724354806890753 -0.5964049014082927 59.45004824946914 -36.68367889966692 -2.785965791777689 0 0 0 25.51173293881024 -6.549677942934629 0.3245084064253527 0.315127660417136 -8.920085551340975 0.9802123773554583 -26.57593120023875 -9.602141252990712 -3.6150997803456595 0 0 0
